# Blender 4.4.3
# www.blender.org
mtllib cat22.mtl
o Cylinder
v 0.709411 -1.999884 -0.795831
v 0.709411 0.000116 -0.795831
v 0.904501 -1.999884 -0.776616
v 0.904501 0.000116 -0.776616
v 1.092095 -1.999884 -0.719710
v 1.092095 0.000116 -0.719710
v 1.264981 -1.999884 -0.627300
v 1.264981 0.000116 -0.627300
v 1.416518 -1.999884 -0.502937
v 1.416518 0.000116 -0.502937
v 1.540881 -1.999884 -0.351401
v 1.540881 0.000116 -0.351401
v 1.633291 -1.999884 -0.178514
v 1.633291 0.000116 -0.178514
v 1.690196 -1.999884 0.009079
v 1.690196 0.000116 0.009079
v 1.709411 -1.999884 0.204169
v 1.709411 0.000116 0.204169
v 1.690196 -1.999884 0.399260
v 1.690196 0.000116 0.399260
v 1.633291 -1.999884 0.586853
v 1.633291 0.000116 0.586853
v 1.540881 -1.999884 0.759740
v 1.540881 0.000116 0.759740
v 1.416518 -1.999884 0.911276
v 1.416518 0.000116 0.911276
v 1.264981 -1.999884 1.035639
v 1.264981 0.000116 1.035639
v 1.092095 -1.999884 1.128049
v 1.092095 0.000116 1.128049
v 0.904501 -1.999884 1.184955
v 0.904501 0.000116 1.184955
v 0.709411 -1.999884 1.204169
v 0.709411 0.000116 1.204169
v 0.514321 -1.999884 1.184955
v 0.514321 0.000116 1.184955
v 0.326728 -1.999884 1.128049
v 0.326728 0.000116 1.128049
v 0.153841 -1.999884 1.035639
v 0.153841 0.000116 1.035639
v 0.002304 -1.999884 0.911276
v 0.002304 0.000116 0.911276
v -0.122058 -1.999884 0.759740
v -0.122058 0.000116 0.759740
v -0.214468 -1.999884 0.586853
v -0.214468 0.000116 0.586853
v -0.271374 -1.999884 0.399260
v -0.271374 0.000116 0.399260
v -0.290589 -1.999884 0.204169
v -0.290589 0.000116 0.204169
v -0.271374 -1.999884 0.009079
v -0.271374 0.000116 0.009079
v -0.214468 -1.999884 -0.178514
v -0.214468 0.000116 -0.178514
v -0.122058 -1.999884 -0.351401
v -0.122058 0.000116 -0.351401
v 0.002304 -1.999884 -0.502937
v 0.002304 0.000116 -0.502937
v 0.153841 -1.999884 -0.627300
v 0.153841 0.000116 -0.627300
v 0.326728 -1.999884 -0.719710
v 0.326728 0.000116 -0.719710
v 0.514321 -1.999884 -0.776616
v 0.514321 0.000116 -0.776616
vn 0.0980 -0.0000 -0.9952
vn 0.2903 -0.0000 -0.9569
vn 0.4714 -0.0000 -0.8819
vn 0.6344 -0.0000 -0.7730
vn 0.7730 -0.0000 -0.6344
vn 0.8819 -0.0000 -0.4714
vn 0.9569 -0.0000 -0.2903
vn 0.9952 -0.0000 -0.0980
vn 0.9952 -0.0000 0.0980
vn 0.9569 -0.0000 0.2903
vn 0.8819 -0.0000 0.4714
vn 0.7730 -0.0000 0.6344
vn 0.6344 -0.0000 0.7730
vn 0.4714 -0.0000 0.8819
vn 0.2903 -0.0000 0.9569
vn 0.0980 -0.0000 0.9952
vn -0.0980 -0.0000 0.9952
vn -0.2903 -0.0000 0.9569
vn -0.4714 -0.0000 0.8819
vn -0.6344 -0.0000 0.7730
vn -0.7730 -0.0000 0.6344
vn -0.8819 -0.0000 0.4714
vn -0.9569 -0.0000 0.2903
vn -0.9952 -0.0000 0.0980
vn -0.9952 -0.0000 -0.0980
vn -0.9569 -0.0000 -0.2903
vn -0.8819 -0.0000 -0.4714
vn -0.7730 -0.0000 -0.6344
vn -0.6344 -0.0000 -0.7730
vn -0.4714 -0.0000 -0.8819
vn -0.0000 1.0000 -0.0000
vn -0.2903 -0.0000 -0.9569
vn -0.0980 -0.0000 -0.9952
vn -0.0000 -1.0000 -0.0000
vt 1.000000 0.500000
vt 1.000000 1.000000
vt 0.968750 1.000000
vt 0.968750 0.500000
vt 0.937500 1.000000
vt 0.937500 0.500000
vt 0.906250 1.000000
vt 0.906250 0.500000
vt 0.875000 1.000000
vt 0.875000 0.500000
vt 0.843750 1.000000
vt 0.843750 0.500000
vt 0.812500 1.000000
vt 0.812500 0.500000
vt 0.781250 1.000000
vt 0.781250 0.500000
vt 0.750000 1.000000
vt 0.750000 0.500000
vt 0.718750 1.000000
vt 0.718750 0.500000
vt 0.687500 1.000000
vt 0.687500 0.500000
vt 0.656250 1.000000
vt 0.656250 0.500000
vt 0.625000 1.000000
vt 0.625000 0.500000
vt 0.593750 1.000000
vt 0.593750 0.500000
vt 0.562500 1.000000
vt 0.562500 0.500000
vt 0.531250 1.000000
vt 0.531250 0.500000
vt 0.500000 1.000000
vt 0.500000 0.500000
vt 0.468750 1.000000
vt 0.468750 0.500000
vt 0.437500 1.000000
vt 0.437500 0.500000
vt 0.406250 1.000000
vt 0.406250 0.500000
vt 0.375000 1.000000
vt 0.375000 0.500000
vt 0.343750 1.000000
vt 0.343750 0.500000
vt 0.312500 1.000000
vt 0.312500 0.500000
vt 0.281250 1.000000
vt 0.281250 0.500000
vt 0.250000 1.000000
vt 0.250000 0.500000
vt 0.218750 1.000000
vt 0.218750 0.500000
vt 0.187500 1.000000
vt 0.187500 0.500000
vt 0.156250 1.000000
vt 0.156250 0.500000
vt 0.125000 1.000000
vt 0.125000 0.500000
vt 0.093750 1.000000
vt 0.093750 0.500000
vt 0.062500 1.000000
vt 0.062500 0.500000
vt 0.407448 0.009782
vt 0.453125 0.005283
vt 0.498802 0.009782
vt 0.542933 0.022934
vt 0.584005 0.044417
vt 0.620495 0.073660
vt 0.650902 0.109783
vt 0.673844 0.151546
vt 0.688175 0.197348
vt 0.693125 0.245283
vt 0.688175 0.293218
vt 0.673844 0.339020
vt 0.650902 0.380783
vt 0.620495 0.416906
vt 0.584005 0.446149
vt 0.542933 0.467632
vt 0.498802 0.480784
vt 0.453125 0.485283
vt 0.407448 0.480784
vt 0.363317 0.467632
vt 0.322245 0.446149
vt 0.285756 0.416906
vt 0.255348 0.380783
vt 0.232406 0.339020
vt 0.218074 0.293218
vt 0.213125 0.245283
vt 0.218074 0.197349
vt 0.232406 0.151546
vt 0.255348 0.109783
vt 0.285756 0.073660
vt 0.322245 0.044417
vt 0.363317 0.022934
vt 0.031250 1.000000
vt 0.031250 0.500000
vt 0.000000 1.000000
vt 0.000000 0.500000
vt 0.445312 0.486855
vt 0.492134 0.482244
vt 0.537157 0.468586
vt 0.578649 0.446408
vt 0.615018 0.416561
vt 0.644865 0.380192
vt 0.667044 0.338699
vt 0.680701 0.293677
vt 0.685313 0.246855
vt 0.680701 0.200034
vt 0.667044 0.155011
vt 0.644865 0.113518
vt 0.615018 0.077150
vt 0.578649 0.047303
vt 0.537157 0.025124
vt 0.492134 0.011467
vt 0.445312 0.006855
vt 0.398491 0.011467
vt 0.353468 0.025124
vt 0.311976 0.047303
vt 0.275607 0.077150
vt 0.245760 0.113518
vt 0.223581 0.155011
vt 0.209924 0.200034
vt 0.205313 0.246855
vt 0.209924 0.293677
vt 0.223581 0.338699
vt 0.245760 0.380192
vt 0.275607 0.416561
vt 0.311976 0.446408
vt 0.353468 0.468586
vt 0.398491 0.482244
s 0
usemtl Material.005
f 1/1/1 2/2/1 4/3/1 3/4/1
f 3/4/2 4/3/2 6/5/2 5/6/2
f 5/6/3 6/5/3 8/7/3 7/8/3
f 7/8/4 8/7/4 10/9/4 9/10/4
f 9/10/5 10/9/5 12/11/5 11/12/5
f 11/12/6 12/11/6 14/13/6 13/14/6
f 13/14/7 14/13/7 16/15/7 15/16/7
f 15/16/8 16/15/8 18/17/8 17/18/8
f 17/18/9 18/17/9 20/19/9 19/20/9
f 19/20/10 20/19/10 22/21/10 21/22/10
f 21/22/11 22/21/11 24/23/11 23/24/11
f 23/24/12 24/23/12 26/25/12 25/26/12
f 25/26/13 26/25/13 28/27/13 27/28/13
f 27/28/14 28/27/14 30/29/14 29/30/14
f 29/30/15 30/29/15 32/31/15 31/32/15
f 31/32/16 32/31/16 34/33/16 33/34/16
f 33/34/17 34/33/17 36/35/17 35/36/17
f 35/36/18 36/35/18 38/37/18 37/38/18
f 37/38/19 38/37/19 40/39/19 39/40/19
f 39/40/20 40/39/20 42/41/20 41/42/20
f 41/42/21 42/41/21 44/43/21 43/44/21
f 43/44/22 44/43/22 46/45/22 45/46/22
f 45/46/23 46/45/23 48/47/23 47/48/23
f 47/48/24 48/47/24 50/49/24 49/50/24
f 49/50/25 50/49/25 52/51/25 51/52/25
f 51/52/26 52/51/26 54/53/26 53/54/26
f 53/54/27 54/53/27 56/55/27 55/56/27
f 55/56/28 56/55/28 58/57/28 57/58/28
f 57/58/29 58/57/29 60/59/29 59/60/29
f 59/60/30 60/59/30 62/61/30 61/62/30
f 4/63/31 2/64/31 64/65/31 62/66/31 60/67/31 58/68/31 56/69/31 54/70/31 52/71/31 50/72/31 48/73/31 46/74/31 44/75/31 42/76/31 40/77/31 38/78/31 36/79/31 34/80/31 32/81/31 30/82/31 28/83/31 26/84/31 24/85/31 22/86/31 20/87/31 18/88/31 16/89/31 14/90/31 12/91/31 10/92/31 8/93/31 6/94/31
f 61/62/32 62/61/32 64/95/32 63/96/32
f 63/96/33 64/95/33 2/97/33 1/98/33
f 1/99/34 3/100/34 5/101/34 7/102/34 9/103/34 11/104/34 13/105/34 15/106/34 17/107/34 19/108/34 21/109/34 23/110/34 25/111/34 27/112/34 29/113/34 31/114/34 33/115/34 35/116/34 37/117/34 39/118/34 41/119/34 43/120/34 45/121/34 47/122/34 49/123/34 51/124/34 53/125/34 55/126/34 57/127/34 59/128/34 61/129/34 63/130/34
